<?xml version="1.0" standalone="no"?>
<!DOCTYPE svg PUBLIC "-//W3C//DTD SVG 20010904//EN"
 "http://www.w3.org/TR/2001/REC-SVG-20010904/DTD/svg10.dtd">
<svg version="1.0" xmlns="http://www.w3.org/2000/svg"
 width="450.000000pt" height="210.000000pt" viewBox="0 0 450.000000 210.000000"
 preserveAspectRatio="xMidYMid meet">

<g transform="translate(0.000000,210.000000) scale(0.100000,-0.100000)"
fill="#000000" stroke="none">
<path d="M2437 1859 c-23 -13 -51 -67 -53 -103 -1 -16 -9 -33 -18 -38 -26 -15
-1 -51 30 -45 23 4 25 2 18 -27 -14 -65 -75 -222 -92 -236 -10 -8 -21 -24 -25
-35 -7 -20 -7 -20 8 -1 19 26 30 14 15 -16 -7 -12 -8 -18 -2 -13 5 6 33 69 62
140 66 166 66 166 74 129 5 -23 -1 -48 -25 -99 -24 -49 -33 -84 -34 -127 -1
-45 -10 -73 -38 -128 -26 -48 -37 -82 -37 -112 0 -34 -6 -47 -32 -71 -21 -18
-26 -26 -14 -23 15 5 18 2 14 -19 -3 -14 -2 -27 2 -30 8 -5 28 40 55 125 10
30 35 89 56 130 21 41 43 87 48 103 17 46 43 34 79 -35 23 -45 32 -77 32 -110
0 -32 8 -64 25 -95 14 -27 30 -68 36 -92 8 -32 13 -40 19 -30 7 11 12 11 22 1
6 -6 20 -12 31 -12 15 0 13 5 -12 26 -42 35 -51 54 -71 154 -10 47 -32 138
-49 203 -39 145 -38 158 9 118 37 -32 84 -44 60 -16 -7 8 -20 15 -29 15 -26 0
-81 62 -81 90 0 14 7 38 15 54 14 27 14 31 -5 51 -11 12 -20 27 -20 33 0 7 -4
12 -10 12 -18 0 -10 22 9 27 23 6 28 22 23 75 -4 36 -6 38 -41 38 -20 0 -44
-5 -54 -11z"/>
<path d="M2290 1310 c-6 -11 -8 -20 -6 -20 3 0 10 9 16 20 6 11 8 20 6 20 -3
0 -10 -9 -16 -20z"/>
<path d="M2250 1300 c-6 -11 -8 -20 -6 -20 3 0 10 9 16 20 6 11 8 20 6 20 -3
0 -10 -9 -16 -20z"/>
<path d="M2260 1260 c-6 -11 -8 -20 -6 -20 3 0 10 9 16 20 6 11 8 20 6 20 -3
0 -10 -9 -16 -20z"/>
<path d="M2204 1225 c-4 -8 -18 -15 -33 -15 -36 -1 -52 -16 -87 -80 -17 -30
-36 -65 -44 -77 -13 -20 -13 -26 2 -50 14 -23 23 -27 50 -25 18 2 39 11 46 20
20 24 92 170 90 179 -1 5 4 19 11 33 l12 25 -18 -23 c-21 -26 -38 -19 -22 9 5
11 7 19 4 19 -3 0 -8 -7 -11 -15z"/>
<path d="M249 602 c-76 -40 -112 -94 -117 -177 -7 -108 38 -174 154 -226 27
-12 56 -25 64 -30 89 -51 142 -63 168 -37 20 20 14 38 -12 38 -57 0 -74 27
-32 50 29 15 75 112 82 173 16 125 -82 236 -207 237 -32 0 -64 -9 -100 -28z
m157 -58 c102 -49 102 -219 0 -268 -99 -47 -206 23 -206 134 0 111 107 181
206 134z"/>
<path d="M3381 593 c-26 -22 -141 -287 -141 -325 0 -23 4 -28 24 -28 14 0 32
10 40 22 14 19 24 22 110 22 86 1 97 -2 116 -22 11 -12 30 -22 41 -22 44 0 36
40 -51 240 -42 96 -68 130 -100 130 -10 0 -27 -8 -39 -17z m75 -170 c9 -24 14
-47 10 -51 -9 -8 -93 -8 -101 0 -3 3 7 33 21 68 25 56 29 60 41 45 7 -10 20
-38 29 -62z"/>
<path d="M1538 563 c-10 -3 -19 -10 -19 -16 -6 -58 -6 -229 0 -257 12 -60 52
-41 65 31 6 35 9 37 54 43 27 3 69 3 95 0 43 -6 47 -9 47 -34 0 -35 31 -75 52
-67 21 7 25 39 23 149 -3 151 -3 148 -25 148 -24 0 -50 -47 -50 -90 l0 -30
-94 0 -93 0 -12 60 c-13 63 -16 69 -43 63z"/>
<path d="M4196 508 c-25 -35 -20 -48 20 -48 45 0 74 -15 74 -40 0 -16 -7 -20
-32 -20 -96 0 -143 -33 -155 -105 -5 -30 -1 -39 27 -65 27 -25 40 -30 84 -30
29 0 58 6 65 13 11 10 14 9 18 -1 7 -18 60 15 67 42 10 36 7 141 -5 177 -26
80 -128 128 -163 77z m94 -202 c0 -49 -80 -75 -114 -37 -14 15 -15 24 -6 40 9
17 20 21 65 21 52 0 55 -2 55 -24z"/>
<path d="M1190 504 c-46 -20 -79 -51 -96 -93 -19 -45 -18 -75 5 -120 22 -42
47 -62 104 -80 32 -11 41 -10 62 3 39 26 31 41 -21 41 -39 1 -50 5 -72 30
l-25 30 101 5 c115 6 131 16 132 83 0 44 -29 79 -85 103 -43 18 -61 17 -105
-2z m89 -57 c13 -6 28 -22 32 -34 8 -23 7 -23 -71 -23 -89 0 -102 12 -54 49
30 24 58 26 93 8z"/>
<path d="M2465 501 c-107 -66 -117 -191 -24 -276 38 -34 46 -37 84 -32 24 2
57 14 74 26 l31 22 0 -24 c0 -53 -85 -109 -139 -92 -25 8 -35 -20 -15 -40 9
-8 29 -15 45 -15 70 0 138 55 159 128 11 40 14 223 4 260 -7 24 -60 59 -66 42
-2 -5 -19 -4 -43 5 -54 19 -74 18 -110 -4z m133 -77 c31 -36 30 -97 -3 -129
-37 -38 -95 -35 -129 6 -78 93 51 215 132 123z"/>
<path d="M2914 503 c-55 -32 -61 -38 -83 -73 -47 -77 -14 -173 75 -216 46 -22
57 -24 92 -15 84 23 137 93 130 170 -6 61 -39 108 -92 132 -52 23 -83 24 -122
2z m124 -79 c31 -36 30 -103 -2 -141 -34 -39 -98 -39 -132 0 -43 51 -27 144
30 167 32 14 79 3 104 -26z"/>
<path d="M2093 495 c-33 -23 -28 -35 13 -35 45 0 74 -15 74 -40 0 -16 -7 -20
-32 -20 -79 0 -104 -11 -131 -53 -35 -53 -34 -79 4 -116 26 -27 38 -31 83 -31
28 0 58 6 64 12 10 10 14 10 21 0 6 -11 14 -8 36 11 23 19 29 34 33 80 6 78
-5 143 -31 173 -29 33 -101 43 -134 19z m85 -192 c-4 -37 -46 -61 -85 -47 -28
9 -39 33 -29 60 4 10 22 14 61 14 55 0 56 0 53 -27z"/>
<path d="M3805 492 c-60 -38 -87 -92 -78 -158 5 -46 28 -81 73 -111 39 -27
101 -31 120 -8 18 22 2 35 -49 42 -61 8 -91 41 -91 98 0 56 26 84 92 100 32 8
43 16 43 30 0 28 -69 32 -110 7z"/>
<path d="M692 442 c-18 -18 -20 -30 -16 -74 7 -72 20 -111 48 -137 31 -30 95
-38 134 -18 26 12 32 13 36 1 9 -23 54 4 66 40 9 30 5 179 -5 197 -3 4 -13 5
-24 2 -14 -4 -20 -18 -25 -60 -9 -77 -28 -117 -63 -132 -63 -26 -94 10 -110
129 -8 67 -16 77 -41 52z"/>
</g>
</svg>
