<?xml version="1.0" standalone="no"?>
<!DOCTYPE svg PUBLIC "-//W3C//DTD SVG 20010904//EN"
 "http://www.w3.org/TR/2001/REC-SVG-20010904/DTD/svg10.dtd">
<svg version="1.0" xmlns="http://www.w3.org/2000/svg"
 width="530.000000pt" height="120.000000pt" viewBox="0 0 530.000000 120.000000"
 preserveAspectRatio="xMidYMid meet">

<g transform="translate(0.000000,120.000000) scale(0.100000,-0.100000)"
fill="#000000" stroke="none">
<path d="M1110 1010 c-12 -12 -18 -25 -15 -30 3 -5 1 -11 -5 -15 -5 -3 -10
-16 -10 -29 0 -12 -5 -27 -11 -33 -16 -16 -1 -36 22 -30 25 7 24 -5 -6 -93
-14 -40 -23 -75 -22 -77 2 -2 16 28 31 67 15 38 32 70 37 70 17 0 9 -47 -17
-104 -14 -31 -23 -63 -21 -71 8 -19 -10 -82 -39 -136 -13 -26 -24 -63 -24 -82
0 -19 -5 -37 -11 -39 -7 -2 -13 -19 -14 -37 -4 -45 9 -28 33 44 31 92 103 235
118 235 21 0 64 -94 64 -141 0 -25 8 -52 20 -69 11 -16 23 -42 26 -58 3 -17
14 -33 23 -36 9 -3 22 -9 30 -12 8 -4 1 8 -16 26 -22 24 -33 49 -42 98 -7 36
-26 114 -43 174 -16 60 -27 112 -24 115 3 4 16 -2 28 -13 16 -12 14 -9 -4 12
-29 32 -37 81 -17 101 8 8 4 20 -15 46 l-26 34 21 15 c19 12 21 20 15 51 -6
33 -10 37 -36 37 -17 0 -39 -9 -50 -20z"/>
<path d="M4419 759 c-10 -10 -19 -25 -19 -33 0 -7 -12 -39 -26 -70 -14 -31
-24 -62 -22 -68 3 -8 35 -12 96 -13 87 -1 92 0 92 19 0 12 -6 32 -13 46 -7 14
-22 48 -32 77 -21 58 -46 72 -76 42z m56 -87 c10 -23 16 -45 13 -48 -3 -3 -26
-4 -51 -2 l-45 3 24 54 c26 59 31 58 59 -7z"/>
<path d="M1255 710 c3 -5 11 -10 16 -10 6 0 7 5 4 10 -3 6 -11 10 -16 10 -6 0
-7 -4 -4 -10z"/>
<path d="M2649 681 c-33 -33 -40 -90 -14 -111 12 -10 15 -10 15 4 0 13 11 16
58 16 66 0 92 18 92 63 0 60 -100 79 -151 28z m112 -1 c10 -6 19 -20 19 -30 0
-18 -7 -20 -65 -20 -69 0 -79 8 -48 42 18 20 64 24 94 8z"/>
<path d="M3453 689 c9 -5 17 -19 17 -29 0 -17 -7 -20 -40 -20 -35 0 -43 -5
-60 -32 -38 -63 -19 -98 52 -98 88 0 121 98 56 168 -12 12 -26 22 -32 22 -6 0
-3 -5 7 -11z m17 -117 c0 -28 -21 -42 -61 -42 -29 0 -39 5 -44 20 -10 31 2 40
56 40 41 0 49 -3 49 -18z"/>
<path d="M1039 670 c-9 -9 -20 -23 -24 -31 -8 -12 -6 -12 8 0 9 7 17 10 18 5
0 -5 5 2 10 15 12 30 9 33 -12 11z"/>
<path d="M5137 662 c5 -20 2 -22 -41 -22 -43 0 -47 -2 -66 -41 -20 -38 -20
-42 -5 -65 22 -34 86 -34 120 0 21 21 24 31 19 73 -2 26 -11 54 -19 62 -12 12
-13 11 -8 -7z m3 -86 c0 -25 -30 -46 -66 -46 -36 0 -51 17 -40 45 8 21 106 21
106 1z"/>
<path d="M2964 658 c-4 -5 0 -14 7 -19 20 -13 29 -11 29 5 0 18 -27 29 -36 14z"/>
<path d="M3143 648 c2 -13 9 -23 15 -23 17 0 15 13 -3 31 -14 14 -15 13 -12
-8z"/>
<path d="M3773 528 c-18 -11 -33 -26 -33 -34 0 -19 9 -18 48 6 18 11 36 18 41
16 4 -3 8 4 8 15 2 25 -22 24 -64 -3z"/>
<path d="M2043 524 c-39 -17 -41 -26 -8 -48 31 -21 66 -21 59 -1 -4 8 1 17 10
21 9 3 16 15 16 25 0 23 -30 24 -77 3z"/>
<path d="M894 500 c-12 -5 -38 -38 -58 -74 -41 -74 -37 -103 15 -103 25 0 33
9 64 68 19 37 35 74 35 83 0 21 -31 35 -56 26z"/>
</g>
</svg>
