<?xml version="1.0" standalone="no"?>
<!DOCTYPE svg PUBLIC "-//W3C//DTD SVG 20010904//EN"
 "http://www.w3.org/TR/2001/REC-SVG-20010904/DTD/svg10.dtd">
<svg version="1.0" xmlns="http://www.w3.org/2000/svg"
 width="540.000000pt" height="90.000000pt" viewBox="0 0 540.000000 90.000000"
 preserveAspectRatio="xMidYMid meet">

<g transform="translate(0.000000,90.000000) scale(0.100000,-0.100000)"
fill="#000000" stroke="none">
<path d="M454 746 c-69 -32 -120 -94 -145 -179 -22 -71 -20 -137 4 -137 10 0
12 17 9 65 -5 80 19 137 83 193 99 87 241 83 333 -9 39 -38 72 -98 73 -131 0
-13 5 -32 10 -43 6 -14 7 -5 4 30 -12 104 -75 190 -164 221 -59 21 -149 17
-207 -10z"/>
<path d="M5120 739 c0 -11 5 -17 10 -14 6 3 10 13 10 21 0 8 -4 14 -10 14 -5
0 -10 -9 -10 -21z"/>
<path d="M4101 723 c-34 -32 -181 -363 -181 -407 0 -52 66 -43 95 14 l16 30
114 0 c108 0 115 -1 126 -22 28 -55 94 -78 104 -35 7 27 -4 60 -89 252 -86
196 -121 227 -185 168z m79 -175 c17 -35 30 -68 30 -75 0 -16 -51 -26 -94 -17
-32 5 -36 9 -30 28 11 35 54 126 60 126 3 0 18 -28 34 -62z"/>
<path d="M1936 708 c-13 -18 -16 -56 -16 -203 0 -147 3 -185 16 -203 30 -43
74 -15 74 47 0 21 3 52 6 68 6 28 10 31 60 37 30 3 78 3 108 0 l54 -7 7 -69
c6 -58 11 -71 31 -85 23 -14 26 -14 44 2 19 17 20 32 20 211 l0 194 -26 16
c-24 16 -26 16 -44 -2 -14 -13 -21 -40 -26 -90 l-7 -72 -53 -6 c-30 -3 -78 -3
-108 0 -50 6 -54 9 -60 37 -3 16 -6 48 -6 72 0 65 -44 97 -74 53z"/>
<path d="M560 671 c-13 -25 -13 -51 0 -51 5 0 6 -7 3 -17 -5 -12 -3 -14 7 -8
10 6 12 4 5 -11 -4 -10 -11 -35 -15 -54 -3 -19 -12 -45 -18 -57 -7 -12 -12
-28 -11 -35 0 -7 12 12 26 41 24 51 26 54 39 36 8 -10 14 -28 14 -39 0 -12 5
-28 10 -36 15 -24 13 7 -5 68 -9 28 -15 69 -15 89 1 89 0 93 -14 93 -9 0 -20
-9 -26 -19z"/>
<path d="M5032 630 c-13 -12 -22 -33 -22 -49 l0 -28 49 11 c60 12 101 -8 101
-49 0 -24 -2 -25 -77 -25 -76 0 -76 0 -115 -40 -30 -33 -38 -48 -38 -79 0 -94
122 -153 208 -101 26 16 32 17 32 5 0 -23 38 -18 65 10 23 23 25 31 25 130 0
122 -11 156 -64 203 -31 27 -44 32 -89 32 -40 0 -59 -5 -75 -20z m128 -238 c0
-50 -59 -83 -111 -62 -22 10 -29 19 -29 41 0 36 22 48 88 49 51 0 52 -1 52
-28z"/>
<path d="M1535 624 c-102 -53 -142 -166 -92 -264 45 -90 168 -139 230 -90 16
13 27 31 27 46 0 27 -2 28 -48 14 -45 -12 -86 -3 -117 28 -47 46 -37 52 93 52
130 0 143 5 157 62 11 43 -28 113 -79 143 -50 29 -125 33 -171 9z m110 -69
c33 -13 59 -50 48 -67 -6 -11 -171 -10 -177 1 -9 14 41 69 67 74 12 2 23 5 25
6 1 0 18 -6 37 -14z"/>
<path d="M2600 633 c-26 -10 -50 -35 -50 -54 0 -15 9 -17 66 -16 55 2 68 -1
80 -18 29 -39 15 -50 -73 -55 -45 -3 -83 -7 -85 -10 -2 -3 -16 -20 -31 -38
-51 -63 -26 -149 53 -182 36 -15 113 -6 130 15 16 19 30 19 30 0 0 -19 4 -19
40 0 38 20 43 42 38 173 -4 120 -16 149 -73 176 -32 16 -95 20 -125 9z m110
-234 c0 -55 -65 -92 -117 -67 -67 32 -26 88 64 88 47 0 53 -2 53 -21z"/>
<path d="M3013 615 c-59 -35 -98 -116 -89 -182 8 -63 34 -110 80 -147 52 -42
125 -43 186 -2 l43 28 -6 -38 c-4 -21 -18 -49 -32 -63 -22 -23 -36 -26 -104
-29 -84 -4 -101 -15 -81 -52 21 -39 128 -45 186 -10 88 55 114 129 114 320 0
124 -2 140 -21 164 -22 29 -66 35 -75 11 -5 -12 -12 -11 -42 5 -51 27 -108 25
-159 -5z m162 -71 c55 -36 57 -134 3 -179 -85 -72 -209 37 -157 138 28 55 103
75 154 41z"/>
<path d="M3560 629 c-112 -47 -163 -176 -107 -273 67 -118 207 -142 305 -52
89 80 79 238 -20 304 -44 29 -134 40 -178 21z m136 -92 c23 -20 28 -34 32 -85
4 -58 3 -63 -26 -92 -25 -25 -38 -30 -77 -30 -38 0 -52 5 -76 29 -25 25 -29
37 -29 84 0 47 4 60 29 86 24 26 37 31 74 31 34 0 53 -6 73 -23z"/>
<path d="M4605 624 c-77 -40 -118 -103 -119 -184 -1 -68 28 -120 87 -157 72
-45 172 -40 198 9 17 31 -4 43 -76 43 -59 0 -67 3 -96 32 -25 25 -32 39 -32
73 0 80 47 120 141 120 68 0 88 22 49 56 -34 29 -105 33 -152 8z"/>
<path d="M1226 588 c-11 -15 -16 -45 -16 -88 0 -121 -28 -170 -97 -170 -28 0
-72 29 -73 49 -1 3 -5 50 -9 104 -5 67 -12 102 -22 108 -41 26 -60 -23 -57
-141 4 -104 16 -141 61 -174 36 -27 120 -28 158 -3 24 16 27 16 32 2 9 -23 45
-18 72 10 24 23 25 29 25 155 0 117 -2 132 -20 150 -26 26 -35 25 -54 -2z"/>
<path d="M808 447 c-3 -19 -2 -25 4 -19 6 6 8 18 6 28 -3 14 -5 12 -10 -9z"/>
<path d="M450 430 c-21 -30 -20 -50 4 -50 14 0 48 65 39 74 -12 11 -22 6 -43
-24z"/>
<path d="M521 404 c0 -11 3 -14 6 -6 3 7 2 16 -1 19 -3 4 -6 -2 -5 -13z"/>
<path d="M630 406 c0 -9 5 -16 10 -16 6 0 10 4 10 9 0 6 -4 13 -10 16 -5 3
-10 -1 -10 -9z"/>
<path d="M340 361 c0 -5 17 -22 38 -38 61 -48 66 -48 18 1 -48 47 -56 53 -56
37z"/>
<path d="M741 326 c-42 -45 -115 -68 -199 -64 -66 3 -71 2 -46 -9 16 -7 38
-12 50 -13 11 0 29 -9 40 -21 60 -66 196 -81 218 -23 10 25 -12 44 -44 38 -27
-6 -70 9 -70 24 0 4 14 16 31 27 29 19 55 52 47 61 -3 2 -15 -7 -27 -20z"/>
</g>
</svg>
